<?xml version="1.0" encoding="UTF-8"?>
<svg xmlns="http://www.w3.org/2000/svg" viewBox="0 0 1192 1306.3">
  <defs>
    <style>
      .cls-1 {
        fill: #999;
      }

      .cls-1, .cls-2, .cls-3, .cls-4, .cls-5, .cls-6 {
        stroke-width: 0px;
      }

      .cls-7, .cls-8 {
        opacity: .5;
      }

      .cls-2 {
        fill: #f7edbc;
      }

      .cls-3, .cls-9 {
        fill-rule: evenodd;
      }

      .cls-10, .cls-8 {
        stroke-linecap: round;
        stroke-width: 30px;
      }

      .cls-10, .cls-8, .cls-11, .cls-12 {
        fill: none;
      }

      .cls-10, .cls-8, .cls-12 {
        stroke: #1c274c;
        stroke-miterlimit: 133.33;
      }

      .cls-5 {
        fill: #ffd652;
      }

      .cls-6 {
        fill: #fb9d46;
      }

      .cls-8 {
        isolation: isolate;
      }

      .cls-11 {
        stroke-width: 17px;
      }

      .cls-11, .cls-9, .cls-13 {
        stroke: #000;
        stroke-miterlimit: 10;
      }

      .cls-9, .cls-13 {
        fill: #f7931e;
        stroke-width: 15px;
      }

      .cls-12 {
        stroke-width: 25px;
      }
    </style>
  </defs>
  <g id="_图层_5" data-name="图层 5">
    <g id="_图层_9" data-name="图层 9">
      <rect class="cls-1" x="468.39" y="291.42" width="246.85" height="242.7" transform="translate(-127.1 351.21) rotate(-30)"/>
    </g>
    <path class="cls-3" d="m482.52,412.25l32.52-19.12-19.12-32.52-32.52,19.12,19.12,32.52h0Zm12.45-65.66l-43.36,25.49c-2.99,1.76-3.99,5.61-2.23,8.61l25.49,43.36c1.76,2.99,5.61,3.99,8.61,2.23l43.36-25.49c2.99-1.76,3.99-5.61,2.23-8.61l-25.49-43.36c-1.76-2.99-5.61-3.99-8.61-2.23h0Zm52.59,27.43l32.52-19.12-19.12-32.52-32.52,19.12,19.12,32.52h0Zm12.45-65.66l-43.36,25.49c-2.99,1.76-3.99,5.61-2.23,8.61l25.49,43.36c1.76,2.99,5.61,3.99,8.61,2.23l43.36-25.49c2.99-1.76,3.99-5.61,2.23-8.61l-25.49-43.36c-1.76-2.99-5.61-3.99-8.61-2.23Zm52.59,27.43l32.52-19.12-19.12-32.52-32.52,19.12,19.12,32.52h0Zm12.45-65.66l-43.36,25.49c-2.99,1.76-3.99,5.61-2.23,8.61l25.49,43.36c1.76,2.99,5.61,3.99,8.61,2.23l43.36-25.49c2.99-1.76,3.99-5.61,2.23-8.61l-25.49-43.36c-1.76-2.99-5.61-3.99-8.61-2.23Zm-104.29,207.16l32.52-19.12-19.12-32.52-32.52,19.12,19.12,32.52h0Zm12.45-65.66l-43.36,25.49c-2.99,1.76-3.99,5.61-2.23,8.61l25.49,43.36c1.76,2.99,5.61,3.99,8.61,2.23l43.36-25.49c2.99-1.76,3.99-5.61,2.23-8.61l-25.49-43.36c-1.76-2.99-5.61-3.99-8.61-2.23h0Zm52.59,27.43l32.52-19.12-19.12-32.52-32.52,19.12,19.12,32.52Zm12.45-65.66l-43.36,25.49c-2.99,1.76-3.99,5.61-2.23,8.61l25.49,43.36c1.76,2.99,5.61,3.99,8.61,2.23l43.36-25.49c2.99-1.76,3.99-5.61,2.23-8.61l-25.49-43.36c-1.76-2.99-5.61-3.99-8.61-2.23h0Zm52.59,27.43l32.52-19.12-19.12-32.52-32.52,19.12,19.12,32.52Zm12.45-65.66l-43.36,25.49c-2.99,1.76-3.99,5.61-2.23,8.61l25.49,43.36c1.76,2.99,5.61,3.99,8.61,2.23l43.36-25.49c2.99-1.76,3.99-5.61,2.23-8.61l-25.49-43.36c-1.76-2.99-5.61-3.99-8.61-2.23h0Zm-104.29,207.16l32.52-19.12-19.12-32.52-32.52,19.12,19.12,32.52h0Zm12.45-65.66l-43.36,25.49c-2.99,1.76-3.99,5.61-2.23,8.61l25.49,43.36c1.76,2.99,5.61,3.99,8.61,2.23l43.36-25.49c2.99-1.76,3.99-5.61,2.23-8.61l-25.49-43.36c-1.76-2.99-5.61-3.99-8.61-2.23Zm52.59,27.43l32.52-19.12-19.12-32.52-32.52,19.12,19.12,32.52Zm12.45-65.66l-43.36,25.49c-2.99,1.76-3.99,5.61-2.23,8.61l25.49,43.36c1.76,2.99,5.61,3.99,8.61,2.23l43.36-25.49c2.99-1.76,3.99-5.61,2.23-8.61l-25.49-43.36c-1.76-2.99-5.61-3.99-8.61-2.23h0Zm52.59,27.43l32.52-19.12-19.12-32.52-32.52,19.12,19.12,32.52Zm12.45-65.66l-43.36,25.49c-2.99,1.76-3.99,5.61-2.23,8.61l25.49,43.36c1.76,2.99,5.61,3.99,8.61,2.23l43.36-25.49c2.99-1.76,3.99-5.61,2.23-8.61l-25.49-43.36c-1.76-2.99-5.61-3.99-8.61-2.23h0Z"/>
    <rect class="cls-11" x="461.55" y="287.25" width="259.78" height="250.71" rx="3.65" ry="3.65" transform="translate(-127.06 351) rotate(-30)"/>
    <g id="_图层_8" data-name="图层 8">
      <g>
        <path class="cls-9" d="m587.43,78.62c15.93,0,28.85,12.92,28.85,28.85v92.33c0,15.93-12.92,28.85-28.85,28.85s-28.85-12.92-28.85-28.85v-92.33c0-15.93,12.92-28.85,28.85-28.85ZM250.81,415.24c0-15.93,12.92-28.85,28.85-28.85h92.33c15.93,0,28.85,12.92,28.85,28.85s-12.92,28.85-28.85,28.85h-92.33c-15.93,0-28.85-12.92-28.85-28.85Zm523.2,0c0-15.93,12.92-28.85,28.85-28.85h92.33c15.93,0,28.85,12.92,28.85,28.85s-12.92,28.85-28.85,28.85h-92.33c-15.93,0-28.85-12.92-28.85-28.85Zm-186.58,186.58c15.93,0,28.85,12.92,28.85,28.85v92.33c0,15.93-12.92,28.85-28.85,28.85s-28.85-12.92-28.85-28.85v-92.33c0-15.93,12.92-28.85,28.85-28.85Z"/>
        <g class="cls-7">
          <path class="cls-13" d="m825.45,177.2c11.27,11.27,11.27,29.54,0,40.8l-65.28,65.29c-11.27,11.27-29.54,11.27-40.81,0-11.27-11.27-11.27-29.54,0-40.8l65.29-65.29c11.27-11.27,29.53-11.27,40.8,0Z"/>
          <path class="cls-13" d="m349.39,177.21c11.27-11.27,29.54-11.27,40.8,0l65.29,65.29c11.27,11.27,11.27,29.54,0,40.8-11.27,11.27-29.54,11.27-40.8,0l-65.29-65.29c-11.27-11.27-11.27-29.54,0-40.8Z"/>
          <path class="cls-13" d="m455.49,547.16c11.27,11.27,11.27,29.54,0,40.81l-65.29,65.28c-11.27,11.27-29.54,11.27-40.8,0-11.27-11.27-11.27-29.54,0-40.8l65.29-65.29c11.27-11.27,29.54-11.27,40.8,0Z"/>
          <path class="cls-13" d="m719.35,547.17c11.27-11.27,29.54-11.27,40.81,0l65.28,65.28c11.27,11.27,11.27,29.54,0,40.81-11.27,11.27-29.54,11.27-40.8,0l-65.29-65.29c-11.27-11.27-11.27-29.53,0-40.8Z"/>
        </g>
      </g>
    </g>
  </g>
  <g id="_图层_2" data-name="图层 2">
    <g>
      <rect class="cls-5" x="167.97" y="750.11" width="647.02" height="537.52"/>
      <rect class="cls-6" x="167.97" y="750.11" width="79.63" height="537.52"/>
      <rect class="cls-2" x="814.99" y="750.11" width="209.04" height="537.52"/>
      <polygon class="cls-5" points="1024.03 750.11 814.99 750.11 964.3 551.03 1173.34 551.03 1024.03 750.11"/>
      <polygon class="cls-2" points="167.97 750.11 377.01 750.11 227.7 551.03 18.66 551.03 167.97 750.11"/>
      <path class="cls-4" d="m1190.03,542.68c-3.16-6.32-9.62-10.32-16.69-10.32h-209.04c-5.87,0-11.41,2.77-14.93,7.47l-143.71,191.62h-419.32l-143.71-191.62c-3.52-4.7-9.06-7.47-14.93-7.47H18.66c-7.07,0-13.53,4-16.69,10.32-3.16,6.32-2.48,13.89,1.76,19.54l145.58,194.11v531.3c0,10.31,8.35,18.66,18.66,18.66h856.05c10.31,0,18.66-8.36,18.66-18.66v-531.3l145.58-194.11c4.24-5.66,4.92-13.22,1.76-19.54Zm-784.4,226.09h161.75v72.17h-161.75v-72.17Zm-187.26-199.08l121.32,161.75h-162.38l-121.31-161.75h162.38Zm787,699.27h-171.71v-60.97c0-10.31-8.35-18.66-18.66-18.66s-18.66,8.36-18.66,18.66v60.97H186.64v-500.19h181.66v90.83c0,10.31,8.35,18.66,18.66,18.66h199.08c10.31,0,18.66-8.36,18.66-18.66v-90.83h191.62v354.61c0,10.31,8.35,18.66,18.66,18.66s18.66-8.36,18.66-18.66v-354.61h171.71v500.19h0Zm9.33-537.52h-162.38l121.32-161.75h162.38l-121.32,161.75Z"/>
    </g>
    <g id="_图层_3" data-name="图层 3">
      <g>
        <path class="cls-8" d="m678.15,1084.85c-.95-10.82-9.71-21.73-24.34-31.89m24.34,31.89c.48,5.55-1.11,10.74-4.55,15.5-6.96,9.65-21.45,17.57-41.43,23.21,29.84-8.42,47.44-21.93,45.97-38.71Zm0,0c-.2-2.28-.75-4.57-1.62-6.85-1.57-4.1-4.21-8.18-7.8-12.21-6.41-7.19-15.87-14.19-27.78-20.75m37.21,39.81c1.71,19.64-22.66,34.79-62.22,42.56m37.88-74.45c-32.19-22.35-92.8-41.08-161.15-47.36-99.42-9.13-177.56,11.54-174.53,46.18m335.68,1.18c-10.06-6.99-22.9-13.62-37.88-19.62,9.19,3.69,17.58,7.61,25.01,11.7m-322.81,6.74c.2,2.28.75,4.57,1.62,6.85,1.57,4.1,4.21,8.18,7.8,12.21,6.41,7.19,15.87,14.19,27.78,20.75m-37.21-39.81c-1.47-16.78,16.13-30.29,45.97-38.71-19.98,5.64-34.47,13.56-41.43,23.21-3.43,4.77-5.03,9.95-4.55,15.5Zm0,0c.95,10.82,9.71,21.73,24.34,31.89m12.87,7.92c7.43,4.09,15.82,8.01,25.01,11.7-14.98-6.01-27.82-12.64-37.88-19.62m12.87,7.92c17.11,9.43,39.28,17.94,64.73,24.78m-77.6-32.7c20.84,14.47,53.59,27.42,92.64,36.46m205.83-75.09c-17.11-9.43-39.28-17.94-64.73-24.78"/>
        <path class="cls-10" d="m557.11,928.72c4.67-2.95,9.2-5.5,13.56-7.63,15.86-7.75,29.47-9.92,39.16-5.24,4.97,2.4,8.6,6.46,10.98,11.93,2.22,5.1,3.33,11.44,3.39,18.79m-67.09-17.85c-32.68,20.62-72,60.56-106.12,110.61-56.6,83.02-77.46,162.47-46.71,177.69m152.83-288.3c-7,4.42-14.31,9.73-21.81,15.83m-131.03,272.46c.06.03.12.06.18.09,2.04.99,4.26,1.67,6.64,2.06,4.27.7,9.05.46,14.25-.67,9.28-2,19.91-6.79,31.36-13.96,2.68-1.68,5.41-3.49,8.17-5.43,4.61-3.23,9.32-6.8,14.11-10.7l21.16-17.19m-95.87,45.8c-14.87-7.36-17.67-29.74-10.19-60.29m226.13-180.5c2.71-11.07,4.07-21.06,3.99-29.66m0,0c.14,15.42-4.35,35.33-12.95,57.86"/>
        <path class="cls-12" d="m493.91,1098.56c-.25-16.4-.37-24.59,4.8-27.58,5.17-2.98,12.21,1.22,26.28,9.63l3.64,2.18c4,2.39,6,3.58,8.2,3.86,2.2.28,4.36-.39,8.68-1.73l3.93-1.22c15.18-4.71,22.77-7.07,27.33-2.86,4.56,4.21,3.08,12.21.1,28.2l-.77,4.14c-.84,4.54-1.27,6.81-.77,9.04.5,2.22,1.87,4.13,4.61,7.97l2.49,3.49c9.63,13.48,14.44,20.22,12.1,25.81-2.35,5.59-10.31,6.32-26.22,7.79l-4.12.38c-4.52.42-6.78.63-8.68,1.72-1.89,1.09-3.2,2.95-5.83,6.65l-2.39,3.37c-9.23,13.05-13.85,19.57-19.86,18.81-6.02-.76-9.45-8.3-16.31-23.38l-1.77-3.9c-1.95-4.29-2.92-6.43-4.6-7.97-1.67-1.54-3.85-2.31-8.21-3.85l-3.97-1.4c-15.33-5.42-23-8.13-24.37-14.19-1.37-6.06,4.47-11.45,16.14-22.24l3.02-2.79c3.32-3.07,4.98-4.6,5.84-6.65.86-2.05.82-4.38.75-9.04l-.06-4.24Z"/>
      </g>
    </g>
  </g>
</svg>