<svg width="25" height="15" viewBox="0 0 44 23" fill="none" xmlns="http://www.w3.org/2000/svg">
<path fill-rule="evenodd" clip-rule="evenodd" d="M8.57633 8.17328C8.57633 6.00608 7.67285 3.92759 6.06448 2.39511C4.45611 0.862624 2.2747 0.00177002 0.00018176 0.00177002C-9.99073e-08 0.00177002 0 0.00177002 0 0.00177002L0 5.61048C0 7.77768 0.903479 9.85617 2.51185 11.3887C4.12022 12.9211 6.30163 13.782 8.57615 13.782C8.57633 13.782 8.57633 13.782 8.57633 13.782V8.17328Z" fill="#F2F2F2"/>
<path fill-rule="evenodd" clip-rule="evenodd" d="M34.5278 8.11419C34.5278 5.96218 33.6265 3.89828 32.022 2.37655C30.4175 0.854815 28.2414 0 25.9724 0C25.9722 0 25.9722 0 25.9722 0V13.6835H34.5278V8.11419Z" fill="#F2F2F2"/>
<path fill-rule="evenodd" clip-rule="evenodd" d="M44 0L43.9998 0C41.7308 0 39.5547 0.860936 37.9502 2.39356C36.3457 3.92619 35.4444 6.00488 35.4444 8.17229C35.4444 14.7834 35.4444 23 35.4444 23H35.4446C37.7136 23 39.8898 22.1391 41.4942 20.6064C43.0987 19.0738 44 16.9951 44 14.8277C44 8.21665 44 0 44 0Z" fill="#F2F2F2"/>
<path fill-rule="evenodd" clip-rule="evenodd" d="M24.4444 9.02533H15.8889V23H15.8891C18.1581 23 20.3342 22.127 21.9387 20.5729C23.5432 19.0188 24.4444 16.911 24.4444 14.7132C24.4444 11.7025 24.4444 9.02533 24.4444 9.02533Z" fill="#F2F2F2"/>
<path fill-rule="evenodd" clip-rule="evenodd" d="M24.4556 8.17175V8.17157C24.4556 6.00437 23.5519 3.92588 21.9436 2.3934C20.3353 0.860913 18.1539 6.10352e-05 15.8794 6.10352e-05C11.6039 6.10352e-05 7.33335 6.10352e-05 7.33335 6.10352e-05V0.000234219C7.33335 2.16744 8.23676 4.24593 9.84508 5.77841C11.4536 7.31089 13.6349 8.17175 15.9095 8.17175C20.185 8.17175 24.4556 8.17175 24.4556 8.17175Z" fill="#F2F2F2"/>
</svg>
